<mxfile host="app.diagrams.net" agent="Mozilla/5.0 (Windows NT 10.0; Win64; x64) AppleWebKit/537.36 (KHTML, like Gecko) Chrome/138.0.0.0 Safari/537.36" version="28.0.7">
  <diagram name="Page-1" id="0dShgAXIgz9Cu3rIgodI">
    <mxGraphModel dx="3044" dy="2245" grid="1" gridSize="10" guides="1" tooltips="1" connect="1" arrows="1" fold="1" page="1" pageScale="1" pageWidth="850" pageHeight="1100" math="0" shadow="0">
      <root>
        <mxCell id="0" />
        <mxCell id="1" parent="0" />
        <mxCell id="e2yxW7IK88T9_g2_Pn78-18" value="&lt;font style=&quot;font-size: 24px;&quot;&gt;Student Information system&lt;/font&gt;" style="rounded=0;whiteSpace=wrap;html=1;fillColor=light-dark(#FFFFFF,#FF3333);" vertex="1" parent="1">
          <mxGeometry x="260" y="-150" width="930" height="100" as="geometry" />
        </mxCell>
        <mxCell id="e2yxW7IK88T9_g2_Pn78-21" value="" style="edgeStyle=orthogonalEdgeStyle;rounded=0;orthogonalLoop=1;jettySize=auto;html=1;" edge="1" parent="1" source="e2yxW7IK88T9_g2_Pn78-19" target="e2yxW7IK88T9_g2_Pn78-20">
          <mxGeometry relative="1" as="geometry" />
        </mxCell>
        <mxCell id="e2yxW7IK88T9_g2_Pn78-23" value="" style="edgeStyle=orthogonalEdgeStyle;rounded=0;orthogonalLoop=1;jettySize=auto;html=1;" edge="1" parent="1" source="e2yxW7IK88T9_g2_Pn78-19" target="e2yxW7IK88T9_g2_Pn78-22">
          <mxGeometry relative="1" as="geometry" />
        </mxCell>
        <mxCell id="e2yxW7IK88T9_g2_Pn78-19" value="&lt;font style=&quot;font-size: 24px;&quot;&gt;Admin&lt;/font&gt;" style="rounded=1;whiteSpace=wrap;html=1;fillColor=light-dark(#FFFFFF,#FF3333);" vertex="1" parent="1">
          <mxGeometry x="-150" y="20" width="290" height="90" as="geometry" />
        </mxCell>
        <mxCell id="e2yxW7IK88T9_g2_Pn78-20" value="&lt;font style=&quot;font-size: 24px;&quot;&gt;Login to system&lt;/font&gt;" style="ellipse;whiteSpace=wrap;html=1;rounded=1;fillColor=light-dark(#FFFFFF,#FF3333);" vertex="1" parent="1">
          <mxGeometry x="260" y="10" width="145" height="110" as="geometry" />
        </mxCell>
        <mxCell id="e2yxW7IK88T9_g2_Pn78-25" value="" style="edgeStyle=orthogonalEdgeStyle;rounded=0;orthogonalLoop=1;jettySize=auto;html=1;" edge="1" parent="1" source="e2yxW7IK88T9_g2_Pn78-22" target="e2yxW7IK88T9_g2_Pn78-24">
          <mxGeometry relative="1" as="geometry" />
        </mxCell>
        <mxCell id="e2yxW7IK88T9_g2_Pn78-22" value="&lt;font style=&quot;font-size: 24px;&quot;&gt;Forgot password&lt;/font&gt;" style="ellipse;whiteSpace=wrap;html=1;rounded=1;fillColor=light-dark(#FFFFFF,#FF3333);" vertex="1" parent="1">
          <mxGeometry x="-90" y="195" width="170" height="115" as="geometry" />
        </mxCell>
        <mxCell id="e2yxW7IK88T9_g2_Pn78-24" value="&lt;font style=&quot;font-size: 24px;&quot;&gt;Send Email to user&lt;/font&gt;" style="ellipse;whiteSpace=wrap;html=1;rounded=1;fillColor=light-dark(#FFFFFF,#FF3333);" vertex="1" parent="1">
          <mxGeometry x="-90" y="390" width="170" height="110" as="geometry" />
        </mxCell>
        <mxCell id="e2yxW7IK88T9_g2_Pn78-26" value="&lt;font style=&quot;font-size: 24px;&quot;&gt;Check Credentials&lt;/font&gt;" style="ellipse;whiteSpace=wrap;html=1;rounded=1;fillColor=light-dark(#FFFFFF,#FF3333);" vertex="1" parent="1">
          <mxGeometry x="240" y="200" width="180" height="110" as="geometry" />
        </mxCell>
        <mxCell id="e2yxW7IK88T9_g2_Pn78-40" value="" style="endArrow=classic;html=1;rounded=0;exitX=1;exitY=0.5;exitDx=0;exitDy=0;entryX=0.034;entryY=0.692;entryDx=0;entryDy=0;entryPerimeter=0;" edge="1" parent="1" source="e2yxW7IK88T9_g2_Pn78-26" target="e2yxW7IK88T9_g2_Pn78-41">
          <mxGeometry width="50" height="50" relative="1" as="geometry">
            <mxPoint x="430" y="220" as="sourcePoint" />
            <mxPoint x="580" y="70" as="targetPoint" />
          </mxGeometry>
        </mxCell>
        <mxCell id="e2yxW7IK88T9_g2_Pn78-44" value="" style="edgeStyle=orthogonalEdgeStyle;rounded=0;orthogonalLoop=1;jettySize=auto;html=1;" edge="1" parent="1" source="e2yxW7IK88T9_g2_Pn78-41" target="e2yxW7IK88T9_g2_Pn78-43">
          <mxGeometry relative="1" as="geometry" />
        </mxCell>
        <mxCell id="e2yxW7IK88T9_g2_Pn78-41" value="&lt;font style=&quot;font-size: 24px;&quot;&gt;Check Roles of&amp;nbsp; Access&lt;/font&gt;" style="ellipse;whiteSpace=wrap;html=1;fillColor=light-dark(#FFFFFF,#FF3333);" vertex="1" parent="1">
          <mxGeometry x="640" y="10" width="240" height="130" as="geometry" />
        </mxCell>
        <mxCell id="e2yxW7IK88T9_g2_Pn78-43" value="&lt;font style=&quot;font-size: 24px;&quot;&gt;Manages Modules&lt;/font&gt;" style="ellipse;whiteSpace=wrap;html=1;fillColor=light-dark(#FFFFFF,#FF3333);" vertex="1" parent="1">
          <mxGeometry x="680" y="210" width="160" height="115" as="geometry" />
        </mxCell>
        <mxCell id="e2yxW7IK88T9_g2_Pn78-48" value="&lt;font style=&quot;font-size: 24px;&quot;&gt;Manage System Admins&lt;/font&gt;" style="rounded=0;whiteSpace=wrap;html=1;fillColor=light-dark(#FFFFFF,#FF3333);" vertex="1" parent="1">
          <mxGeometry x="-210" y="620" width="360" height="100" as="geometry" />
        </mxCell>
        <mxCell id="e2yxW7IK88T9_g2_Pn78-49" value="&lt;font style=&quot;font-size: 24px;&quot;&gt;Manage Roles of User&lt;/font&gt;" style="whiteSpace=wrap;html=1;rounded=0;fillColor=light-dark(#FFFFFF,#FF3333);" vertex="1" parent="1">
          <mxGeometry x="230" y="620" width="310" height="100" as="geometry" />
        </mxCell>
        <mxCell id="e2yxW7IK88T9_g2_Pn78-52" value="&lt;font style=&quot;font-size: 24px;&quot;&gt;Manage User Permission&lt;/font&gt;" style="whiteSpace=wrap;html=1;rounded=0;fillColor=light-dark(#FFFFFF,#FF3333);" vertex="1" parent="1">
          <mxGeometry x="600" y="620" width="350" height="100" as="geometry" />
        </mxCell>
        <mxCell id="e2yxW7IK88T9_g2_Pn78-56" value="&lt;font style=&quot;font-size: 24px;&quot;&gt;manage&amp;nbsp; Student Details&lt;/font&gt;" style="rounded=1;whiteSpace=wrap;html=1;fillColor=light-dark(#FFFFFF,#FF3333);" vertex="1" parent="1">
          <mxGeometry x="1150" y="325" width="320" height="70" as="geometry" />
        </mxCell>
        <mxCell id="e2yxW7IK88T9_g2_Pn78-57" value="&lt;font style=&quot;font-size: 24px;&quot;&gt;Manage Class Details&lt;/font&gt;" style="whiteSpace=wrap;html=1;rounded=1;fillColor=light-dark(#FFFFFF,#FF3333);" vertex="1" parent="1">
          <mxGeometry x="1150" y="220" width="320" height="70" as="geometry" />
        </mxCell>
        <mxCell id="e2yxW7IK88T9_g2_Pn78-59" value="&lt;font style=&quot;font-size: 24px;&quot;&gt;Manage Attendence Details&lt;/font&gt;" style="whiteSpace=wrap;html=1;rounded=1;fillColor=light-dark(#FFFFFF,#FF3333);" vertex="1" parent="1">
          <mxGeometry x="1150" y="120" width="320" height="60" as="geometry" />
        </mxCell>
        <mxCell id="e2yxW7IK88T9_g2_Pn78-61" value="&lt;font style=&quot;font-size: 24px;&quot;&gt;Manage Timetable Details&lt;/font&gt;" style="whiteSpace=wrap;html=1;rounded=1;fillColor=light-dark(#FFFFFF,#FF3333);" vertex="1" parent="1">
          <mxGeometry x="1140" width="340" height="80" as="geometry" />
        </mxCell>
        <mxCell id="e2yxW7IK88T9_g2_Pn78-63" value="&lt;font style=&quot;font-size: 24px;&quot;&gt;Manage Fees Details&lt;/font&gt;" style="whiteSpace=wrap;html=1;rounded=1;fillColor=light-dark(#FFFFFF,#FF3333);" vertex="1" parent="1">
          <mxGeometry x="1150" y="430" width="320" height="70" as="geometry" />
        </mxCell>
        <mxCell id="e2yxW7IK88T9_g2_Pn78-65" value="&lt;font style=&quot;font-size: 24px;&quot;&gt;mange&amp;nbsp; Teacher Profiles&lt;/font&gt;" style="whiteSpace=wrap;html=1;rounded=1;fillColor=light-dark(#FFFFFF,#FF3333);" vertex="1" parent="1">
          <mxGeometry x="1150" y="540" width="320" height="70" as="geometry" />
        </mxCell>
        <mxCell id="e2yxW7IK88T9_g2_Pn78-67" value="&lt;font style=&quot;font-size: 24px;&quot;&gt;manage Report&lt;/font&gt;" style="whiteSpace=wrap;html=1;rounded=1;fillColor=light-dark(#FFFFFF,#FF3333);" vertex="1" parent="1">
          <mxGeometry x="1150" y="650" width="320" height="70" as="geometry" />
        </mxCell>
        <mxCell id="e2yxW7IK88T9_g2_Pn78-73" value="" style="edgeStyle=none;orthogonalLoop=1;jettySize=auto;html=1;rounded=0;entryX=0;entryY=0.75;entryDx=0;entryDy=0;exitX=0.975;exitY=0.274;exitDx=0;exitDy=0;exitPerimeter=0;" edge="1" parent="1" source="e2yxW7IK88T9_g2_Pn78-43" target="e2yxW7IK88T9_g2_Pn78-61">
          <mxGeometry width="100" relative="1" as="geometry">
            <mxPoint x="840" y="240" as="sourcePoint" />
            <mxPoint x="920" y="250" as="targetPoint" />
            <Array as="points" />
          </mxGeometry>
        </mxCell>
        <mxCell id="e2yxW7IK88T9_g2_Pn78-74" value="" style="edgeStyle=none;orthogonalLoop=1;jettySize=auto;html=1;rounded=0;entryX=0;entryY=0.5;entryDx=0;entryDy=0;exitX=0.985;exitY=0.381;exitDx=0;exitDy=0;exitPerimeter=0;" edge="1" parent="1" source="e2yxW7IK88T9_g2_Pn78-43" target="e2yxW7IK88T9_g2_Pn78-59">
          <mxGeometry width="100" relative="1" as="geometry">
            <mxPoint x="930" y="270" as="sourcePoint" />
            <mxPoint x="1030" y="270" as="targetPoint" />
            <Array as="points" />
          </mxGeometry>
        </mxCell>
        <mxCell id="e2yxW7IK88T9_g2_Pn78-75" value="" style="edgeStyle=none;orthogonalLoop=1;jettySize=auto;html=1;rounded=0;entryX=0;entryY=0.5;entryDx=0;entryDy=0;exitX=0.985;exitY=0.408;exitDx=0;exitDy=0;exitPerimeter=0;" edge="1" parent="1" source="e2yxW7IK88T9_g2_Pn78-43" target="e2yxW7IK88T9_g2_Pn78-57">
          <mxGeometry width="100" relative="1" as="geometry">
            <mxPoint x="860" y="260" as="sourcePoint" />
            <mxPoint x="960" y="260" as="targetPoint" />
            <Array as="points" />
          </mxGeometry>
        </mxCell>
        <mxCell id="e2yxW7IK88T9_g2_Pn78-77" value="" style="edgeStyle=none;orthogonalLoop=1;jettySize=auto;html=1;rounded=0;exitX=1.023;exitY=0.609;exitDx=0;exitDy=0;exitPerimeter=0;entryX=0;entryY=0.5;entryDx=0;entryDy=0;" edge="1" parent="1" source="e2yxW7IK88T9_g2_Pn78-43" target="e2yxW7IK88T9_g2_Pn78-56">
          <mxGeometry width="100" relative="1" as="geometry">
            <mxPoint x="1030" y="350" as="sourcePoint" />
            <mxPoint x="1130" y="350" as="targetPoint" />
            <Array as="points" />
          </mxGeometry>
        </mxCell>
        <mxCell id="e2yxW7IK88T9_g2_Pn78-79" value="" style="edgeStyle=none;orthogonalLoop=1;jettySize=auto;html=1;rounded=0;entryX=0;entryY=0.75;entryDx=0;entryDy=0;exitX=0.975;exitY=0.729;exitDx=0;exitDy=0;exitPerimeter=0;" edge="1" parent="1" source="e2yxW7IK88T9_g2_Pn78-43" target="e2yxW7IK88T9_g2_Pn78-63">
          <mxGeometry width="100" relative="1" as="geometry">
            <mxPoint x="970" y="440" as="sourcePoint" />
            <mxPoint x="1070" y="440" as="targetPoint" />
            <Array as="points" />
          </mxGeometry>
        </mxCell>
        <mxCell id="e2yxW7IK88T9_g2_Pn78-81" value="" style="edgeStyle=none;orthogonalLoop=1;jettySize=auto;html=1;rounded=0;entryX=0;entryY=0.5;entryDx=0;entryDy=0;" edge="1" parent="1" source="e2yxW7IK88T9_g2_Pn78-43" target="e2yxW7IK88T9_g2_Pn78-65">
          <mxGeometry width="100" relative="1" as="geometry">
            <mxPoint x="970" y="540" as="sourcePoint" />
            <mxPoint x="1070" y="540" as="targetPoint" />
            <Array as="points" />
          </mxGeometry>
        </mxCell>
        <mxCell id="e2yxW7IK88T9_g2_Pn78-82" value="" style="edgeStyle=none;orthogonalLoop=1;jettySize=auto;html=1;rounded=0;entryX=0;entryY=0.5;entryDx=0;entryDy=0;exitX=0.735;exitY=0.903;exitDx=0;exitDy=0;exitPerimeter=0;" edge="1" parent="1" source="e2yxW7IK88T9_g2_Pn78-43" target="e2yxW7IK88T9_g2_Pn78-67">
          <mxGeometry width="100" relative="1" as="geometry">
            <mxPoint x="1010" y="670" as="sourcePoint" />
            <mxPoint x="1110" y="670" as="targetPoint" />
            <Array as="points" />
          </mxGeometry>
        </mxCell>
        <mxCell id="e2yxW7IK88T9_g2_Pn78-83" value="" style="edgeStyle=none;orthogonalLoop=1;jettySize=auto;html=1;rounded=0;entryX=0.459;entryY=0;entryDx=0;entryDy=0;entryPerimeter=0;exitX=0.59;exitY=1.01;exitDx=0;exitDy=0;exitPerimeter=0;" edge="1" parent="1" source="e2yxW7IK88T9_g2_Pn78-43" target="e2yxW7IK88T9_g2_Pn78-52">
          <mxGeometry width="100" relative="1" as="geometry">
            <mxPoint x="710" y="370" as="sourcePoint" />
            <mxPoint x="810" y="370" as="targetPoint" />
            <Array as="points" />
          </mxGeometry>
        </mxCell>
        <mxCell id="e2yxW7IK88T9_g2_Pn78-84" value="" style="edgeStyle=none;orthogonalLoop=1;jettySize=auto;html=1;rounded=0;entryX=0.545;entryY=-0.015;entryDx=0;entryDy=0;entryPerimeter=0;" edge="1" parent="1" target="e2yxW7IK88T9_g2_Pn78-49">
          <mxGeometry width="100" relative="1" as="geometry">
            <mxPoint x="750" y="326" as="sourcePoint" />
            <mxPoint x="640" y="410" as="targetPoint" />
            <Array as="points" />
          </mxGeometry>
        </mxCell>
        <mxCell id="e2yxW7IK88T9_g2_Pn78-85" value="" style="edgeStyle=none;orthogonalLoop=1;jettySize=auto;html=1;rounded=0;exitX=0;exitY=1;exitDx=0;exitDy=0;entryX=0.568;entryY=0.015;entryDx=0;entryDy=0;entryPerimeter=0;" edge="1" parent="1" source="e2yxW7IK88T9_g2_Pn78-43" target="e2yxW7IK88T9_g2_Pn78-48">
          <mxGeometry width="100" relative="1" as="geometry">
            <mxPoint x="520" y="370" as="sourcePoint" />
            <mxPoint x="694" y="303" as="targetPoint" />
            <Array as="points" />
          </mxGeometry>
        </mxCell>
        <mxCell id="e2yxW7IK88T9_g2_Pn78-86" value="" style="edgeStyle=none;orthogonalLoop=1;jettySize=auto;html=1;rounded=0;entryX=0.5;entryY=0;entryDx=0;entryDy=0;exitX=0.5;exitY=1;exitDx=0;exitDy=0;" edge="1" parent="1" source="e2yxW7IK88T9_g2_Pn78-20" target="e2yxW7IK88T9_g2_Pn78-26">
          <mxGeometry width="100" relative="1" as="geometry">
            <mxPoint x="260" y="120" as="sourcePoint" />
            <mxPoint x="360" y="120" as="targetPoint" />
            <Array as="points" />
          </mxGeometry>
        </mxCell>
      </root>
    </mxGraphModel>
  </diagram>
</mxfile>
